<svg class="logo " width="30" height="30" viewBox="0 0 1000 1000" version="1.1" xmlns="http://www.w3.org/2000/svg" xmlns:xlink="http://www.w3.org/1999/xlink">
    <g stroke="none" stroke-width="1" fill="none" fill-rule="evenodd">
        <g transform="translate(0.000000, 111.695138)">
            <path d="M850.749844,470.447954 L862.990642,470.447954 L864.413023,470.447954 C869.930655,470.447954 874.40358,465.963625 874.40358,460.44314 L874.40358,459.01873 L874.40358,191.15118 L874.40358,189.464496 C874.40358,183.942335 869.925641,179.465738 864.413023,179.465738 L862.990642,179.465738 L799.498376,179.52949 L795.057139,154.319717 L877.340871,154.319717 L880.188868,154.319717 C891.236685,154.319717 900.19271,163.281277 900.19271,174.313511 L900.19271,177.160076 L900.19271,751.100268 L850.749844,470.447954 Z" fill="#60C5BA" transform="translate(847.624925, 452.709993) rotate(20.000000) translate(-847.624925, -452.709993) "></path>
            <path d="M776.236466,420.474894 L790.316981,420.474894 L793.44484,420.474894 C798.967893,420.474894 803.445212,416.005586 803.445212,410.476954 L803.445212,407.327929 L803.445212,99.20155 L803.445212,95.7574356 C803.445212,90.2359268 798.963938,85.7598595 793.44484,85.7598595 L790.316981,85.7598595 L717.282222,85.8331924 L712.173495,56.8345469 L806.82396,56.8345469 L813.120191,56.8345469 C824.160417,56.8345469 833.110289,65.7844316 833.110289,76.8312997 L833.110289,83.1076709 L833.110289,743.307508 L776.236466,420.474894 Z" fill="#34AADC" transform="translate(772.641892, 400.071027) rotate(10.000000) translate(-772.641892, -400.071027) "></path>
            <path d="M242.4803,20.8816868 C242.4803,9.84067692 251.429417,0.89016998 262.475339,0.89016998 L268.751172,0.89016998 L729.911616,0.89016998 L736.20969,0.89016998 C747.253148,0.89016998 756.20564,9.84306688 756.20564,20.8936529 L756.20564,27.1721365 L756.20564,750.32153 L756.20564,756.618207 C756.20564,767.659217 747.256522,776.609724 736.210601,776.609724 L729.934768,776.609724 L268.774324,776.609724 L262.47625,776.609724 C251.432792,776.609724 242.4803,767.656827 242.4803,756.606241 L242.4803,750.327758 L242.4803,27.1783643 L242.4803,20.8816868 Z M270.552723,390.565057 C270.552723,396.088949 275.023147,400.566948 280.55316,400.566948 L283.702973,400.566948 L714.301901,400.566948 L717.430064,400.566948 C722.953653,400.566948 727.431406,396.097491 727.431406,390.568675 L727.431406,387.419544 L727.431406,45.8341156 L727.431406,42.6838454 C727.431406,37.1599539 722.960982,32.681955 717.430969,32.681955 L714.281156,32.681955 L283.682228,32.681955 L280.554065,32.681955 C275.030476,32.681955 270.552723,37.1514116 270.552723,42.6802279 L270.552723,45.8293587 L270.552723,387.414787 L270.552723,390.565057 Z M298.035625,464.382604 L298.035625,513.970649 L604.413162,513.970649 L604.413162,464.382604 L298.035625,464.382604 Z M298.035625,547.772456 L298.035625,597.360501 L451.224393,597.360501 L451.224393,547.772456 L298.035625,547.772456 Z M298.035625,631.162308 L298.035625,680.750353 L547.514476,680.750353 L547.514476,631.162308 L298.035625,631.162308 Z" fill="#D62A9D"></path>
            <path d="M228.650681,422.966067 L242.731196,422.966067 L245.859055,422.966067 C251.382108,422.966067 255.859427,418.49676 255.859427,412.968128 L255.859427,409.819102 L255.859427,101.692723 L255.859427,98.248609 C255.859427,92.7271002 251.378153,88.2510329 245.859055,88.2510329 L242.731196,88.2510329 L169.696437,88.3243658 L164.58771,59.3257203 L259.238175,59.3257203 L265.534406,59.3257203 C276.574632,59.3257203 285.524504,68.275605 285.524504,79.3224731 L285.524504,85.5988443 L285.524504,745.798681 L228.650681,422.966067 Z" fill="#FF2D55" transform="translate(225.056107, 402.562201) scale(-1, 1) rotate(10.000000) translate(-225.056107, -402.562201) "></path>
            <path d="M155.645303,467.95678 L167.886102,467.95678 L169.308482,467.95678 C174.826114,467.95678 179.299039,463.472452 179.299039,457.951967 L179.299039,456.527556 L179.299039,188.660006 L179.299039,186.973322 C179.299039,181.451161 174.821101,176.974565 169.308482,176.974565 L167.886102,176.974565 L104.393836,177.038316 L99.9525987,151.828543 L182.236331,151.828543 L185.084327,151.828543 C196.132144,151.828543 205.08817,160.790103 205.08817,171.822337 L205.08817,174.668903 L205.08817,748.609095 L155.645303,467.95678 Z" fill="#FF9500" transform="translate(152.520384, 450.218819) scale(-1, 1) rotate(20.000000) translate(-152.520384, -450.218819) "></path>
        </g>
    </g>
</svg>