<svg xmlns="http://www.w3.org/2000/svg" width="24" height="24" viewBox="0 0 24 24" fill="none" stroke="currentColor" stroke-width="2" stroke-linecap="round" stroke-linejoin="round">
    <g id="icon_card_black" stroke="none" stroke-width="1" fill="none" fill-rule="evenodd">
        <path d="M20.394235,13.9911166 L20.6745755,14.0931522 C20.818932,14.1456936 21.0312267,13.9265333 21.0312267,13.9265333 L23.2640895,7.79179316 C23.3178855,7.64398982 23.1001151,7.42903675 23.1001151,7.42903675 L21.6454749,6.9012445 L21.7539021,6.28686594 L23.6383757,6.97275821 C23.9274172,7.07796073 23.9713414,7.68633734 23.9713414,7.68633734 L19.1871497,20.8307959 L20.394235,13.9911166 Z M18.6429671,12.7808567 L18.9809231,12.8404475 C19.1549478,12.8711327 19.3516626,12.5804587 19.3516626,12.5804587 L20.6556979,5.1849069 C20.6871159,5.00672703 20.3974855,4.80672313 20.3974855,4.80672313 L18.6442179,4.4993896 L18.6443263,3.78175241 L20.9160969,4.18232685 C21.2645422,4.24376717 21.4358213,4.9241736 21.4358213,4.9241736 L18.6417603,20.7700811 L18.6429671,12.7808567 Z M5.72197247,3.18779612 C5.72197247,2.83395031 6.36224481,2.54710161 6.36224481,2.54710161 L17.6016233,2.54710161 C17.9555475,2.54710161 18.2424598,3.18764433 18.2424598,3.18764433 L18.2424598,20.8122039 C18.2424598,21.1660497 17.6021875,21.4528984 17.6021875,21.4528984 L6.36280906,21.4528984 C6.00888479,21.4528984 5.72197247,20.8123557 5.72197247,20.8123557 L5.72197247,3.18779612 Z M6.40615211,11.9674595 C6.40615211,12.144491 6.72664933,12.2880033 6.72664933,12.2880033 L17.2211841,12.2880033 C17.3979106,12.2880033 17.5411757,11.9675755 17.5411757,11.9675755 L17.5411757,3.64247312 C17.5411757,3.46544168 17.2206785,3.32192934 17.2206785,3.32192934 L6.72614374,3.32192934 C6.54941724,3.32192934 6.40615211,3.64235719 6.40615211,3.64235719 L6.40615211,11.9674595 Z M7.07596398,13.8433152 L7.07596398,15.0518725 L14.5429814,15.0518725 L14.5429814,13.8433152 L7.07596398,13.8433152 Z M7.07596398,15.8756883 L7.07596398,17.0842456 L10.8094727,17.0842456 L10.8094727,15.8756883 L7.07596398,15.8756883 Z M7.07596398,17.9080615 L7.07596398,19.1166188 L13.1562496,19.1166188 L13.1562496,17.9080615 L7.07596398,17.9080615 Z M5.29738721,12.8415714 L5.29859395,20.8307959 L2.50453292,4.98488835 C2.50453292,4.98488835 2.67581204,4.30448192 3.02425741,4.2430416 L5.29602793,3.84246716 L5.29613633,4.56010435 L3.5428688,4.86743788 C3.5428688,4.86743788 3.2532384,5.06744178 3.28465632,5.24562165 L4.58869165,12.6411735 C4.58869165,12.6411735 4.78540642,12.9318475 4.95943116,12.9011622 L5.29738721,12.8415714 Z M3.60576502,13.9304018 L4.81285029,20.7700811 L0.0286586264,7.62562259 C0.0286586264,7.62562259 0.0725827746,7.01724598 0.361624324,6.91204346 L2.24609786,6.22615119 L2.35452506,6.84052975 L0.899884899,7.36832201 C0.899884899,7.36832201 0.682114488,7.58327507 0.735910502,7.73107841 L2.96877329,13.8658185 C2.96877329,13.8658185 3.18106797,14.0849789 3.32542454,14.0324374 L3.60576502,13.9304018 Z" fill="currentColor"></path>
    </g>
</svg>